<?xml version="1.0"?>
<svg version="1.1" xmlns="http://www.w3.org/2000/svg" xmlns:xlink="http://www.w3.org/1999/xlink" width="640" height="130">
    <desc iVinci="yes" version="4.6" gridStep="20" showGrid="no" snapToGrid="no" codePlatform="0"/>
    <g id="Layer1" name="Layer 1" opacity="1">
        <g id="Shape1">
            <desc shapeID="1" type="2" basicInfo-basicType="0" basicInfo-roundedRectRadius="12" basicInfo-polygonSides="6" basicInfo-starPoints="5" bounding="rect(-320,-38.6326,640,77.2653)" text="COCOROBO SPEAK" font-familyName="ヒラギノ丸ゴ ProN" font-pixelSize="50" font-bold="0" font-underline="0" font-alignment="1" strokeStyle="0" markerStart="0" markerEnd="0" shadowEnabled="0" shadowOffsetX="0" shadowOffsetY="2" shadowBlur="4" shadowOpacity="160" blurEnabled="0" blurRadius="4" transform="matrix(1,0,0,1,319.447,38.4751)" pers-center="0,0" pers-size="573.236,0" pers-start="0,0" pers-end="0,0" locked="0" mesh="" flag=""/>
            <path id="shapePath1" d="M90.5814,18.5001 C80.1814,18.5001 73.3314,26.5501 73.3314,38.7001 C73.3314,51.1501 80.1814,59.0001 90.9314,59.0001 C99.8314,59.0001 104.031,53.4001 105.781,48.4501 C105.881,48.1501 105.931,47.9001 105.931,47.6001 C105.931,46.5501 105.031,45.8001 104.181,45.6001 C103.831,45.5001 103.481,45.4501 103.181,45.4501 C102.231,45.4501 101.331,45.9001 100.931,47.0001 C99.6314,51.0001 96.7814,54.6001 90.7814,54.6001 C83.2814,54.6001 78.3314,48.4001 78.3314,38.7501 C78.3314,28.9001 83.2814,22.8501 90.7814,22.8501 C96.4814,22.8501 98.9814,25.8001 100.481,29.4001 C100.931,30.3501 101.731,30.7001 102.581,30.7001 C102.981,30.7001 103.381,30.6501 103.781,30.5001 C104.531,30.2501 105.331,29.5501 105.331,28.5001 C105.331,28.2001 105.281,27.8501 105.131,27.5001 C103.331,23.1001 99.3814,18.5001 90.5814,18.5001 M127.925,18.5001 C117.175,18.5001 110.425,26.4501 110.425,38.7001 C110.425,51.1001 117.225,59.0001 127.925,59.0001 C138.625,59.0001 145.325,51.0501 145.325,38.7501 C145.325,26.4001 138.625,18.5001 127.925,18.5001 M127.925,22.8001 C135.525,22.8001 140.375,29.0001 140.375,38.4501 C140.375,48.5001 135.725,54.6501 127.925,54.6501 C120.275,54.6501 115.375,48.4001 115.375,38.7501 C115.375,29.1001 120.175,22.8001 127.925,22.8001 M167.909,18.5001 C157.509,18.5001 150.659,26.5501 150.659,38.7001 C150.659,51.1501 157.509,59.0001 168.259,59.0001 C177.159,59.0001 181.359,53.4001 183.109,48.4501 C183.209,48.1501 183.259,47.9001 183.259,47.6001 C183.259,46.5501 182.359,45.8001 181.509,45.6001 C181.159,45.5001 180.809,45.4501 180.509,45.4501 C179.559,45.4501 178.659,45.9001 178.259,47.0001 C176.959,51.0001 174.109,54.6001 168.109,54.6001 C160.609,54.6001 155.659,48.4001 155.659,38.7501 C155.659,28.9001 160.609,22.8501 168.109,22.8501 C173.809,22.8501 176.309,25.8001 177.809,29.4001 C178.259,30.3501 179.059,30.7001 179.909,30.7001 C180.309,30.7001 180.709,30.6501 181.109,30.5001 C181.859,30.2501 182.659,29.5501 182.659,28.5001 C182.659,28.2001 182.609,27.8501 182.459,27.5001 C180.659,23.1001 176.709,18.5001 167.909,18.5001 M205.253,18.5001 C194.503,18.5001 187.753,26.4501 187.753,38.7001 C187.753,51.1001 194.553,59.0001 205.253,59.0001 C215.953,59.0001 222.653,51.0501 222.653,38.7501 C222.653,26.4001 215.953,18.5001 205.253,18.5001 M205.253,22.8001 C212.853,22.8001 217.703,29.0001 217.703,38.4501 C217.703,48.5001 213.053,54.6501 205.253,54.6501 C197.603,54.6501 192.703,48.4001 192.703,38.7501 C192.703,29.1001 197.503,22.8001 205.253,22.8001 M258.103,52.6001 C254.403,43.2501 252.803,39.9001 249.803,39.0001 C254.453,38.0001 257.703,35.0001 257.703,29.2501 C257.703,23.1001 253.703,19.2501 246.453,19.2501 L234.753,19.2501 C231.203,19.2501 229.653,20.8001 229.653,24.6501 L229.653,56.3501 C229.653,57.8001 230.653,58.5001 232.053,58.5001 C233.403,58.5001 234.353,57.8001 234.353,56.4001 L234.353,40.7001 L243.553,40.7001 C248.553,40.7001 249.953,44.2501 253.553,54.0001 L254.803,57.2001 C255.153,58.1001 255.903,58.5001 256.753,58.5001 C257.103,58.5001 257.503,58.4501 257.853,58.3501 C258.853,58.1001 259.503,57.3501 259.503,56.4001 C259.503,56.1001 259.453,55.8501 259.353,55.5501 L258.103,52.6001 M234.353,36.6001 L234.353,25.1501 C234.353,23.9501 234.953,23.4001 236.003,23.4001 L246.153,23.4001 C250.603,23.4001 252.903,25.7001 252.903,29.9501 C252.903,33.9501 250.103,36.6001 245.853,36.6001 L234.353,36.6001 M281.503,18.5001 C270.753,18.5001 264.003,26.4501 264.003,38.7001 C264.003,51.1001 270.803,59.0001 281.503,59.0001 C292.203,59.0001 298.903,51.0501 298.903,38.7501 C298.903,26.4001 292.203,18.5001 281.503,18.5001 M281.503,22.8001 C289.103,22.8001 293.953,29.0001 293.953,38.4501 C293.953,48.5001 289.303,54.6501 281.503,54.6501 C273.853,54.6501 268.953,48.4001 268.953,38.7501 C268.953,29.1001 273.753,22.8001 281.503,22.8001 M323.303,58.2001 C331.003,58.2001 335.453,54.2001 335.453,47.4001 C335.453,42.0001 332.853,38.7001 327.753,37.6501 C332.053,36.2501 334.103,33.4501 334.103,28.7001 C334.103,22.7001 329.953,19.2501 322.753,19.2501 L310.953,19.2501 C307.403,19.2501 305.903,20.8001 305.903,24.6501 L305.903,52.8501 C305.903,56.6501 307.403,58.2001 310.953,58.2001 L323.303,58.2001 M310.553,35.7001 L310.553,25.0001 C310.553,24.0001 311.053,23.4001 312.003,23.4001 L322.403,23.4001 C326.953,23.4001 329.303,25.4001 329.303,29.3001 C329.303,33.3001 326.803,35.7001 322.503,35.7001 L310.553,35.7001 M310.553,39.8001 L322.653,39.8001 C327.753,39.8001 330.503,42.2501 330.503,46.9501 C330.503,51.5501 327.803,54.0501 322.753,54.0501 L312.153,54.0501 C311.053,54.0501 310.553,53.5001 310.553,52.4001 L310.553,39.8001 M358.05,18.5001 C347.3,18.5001 340.55,26.4501 340.55,38.7001 C340.55,51.1001 347.35,59.0001 358.05,59.0001 C368.75,59.0001 375.45,51.0501 375.45,38.7501 C375.45,26.4001 368.75,18.5001 358.05,18.5001 M358.05,22.8001 C365.65,22.8001 370.5,29.0001 370.5,38.4501 C370.5,48.5001 365.85,54.6501 358.05,54.6501 C350.4,54.6501 345.5,48.4001 345.5,38.7501 C345.5,29.1001 350.3,22.8001 358.05,22.8001 M410.191,35.4001 C404.591,34.3001 402.841,32.4501 402.841,28.8501 C402.841,25.5501 405.491,22.6501 411.291,22.6501 C416.841,22.6501 418.941,25.4501 419.741,28.3001 C420.141,29.3501 421.041,29.7501 421.941,29.7501 C422.241,29.7501 422.541,29.7001 422.791,29.6501 C423.791,29.4501 424.641,28.7001 424.641,27.6501 C424.641,27.4001 424.591,27.1501 424.491,26.9001 C423.391,23.3001 420.291,18.5001 411.291,18.5001 C401.891,18.5001 397.991,23.6001 397.991,28.8501 C397.991,35.4001 401.391,38.2501 408.891,39.8001 L412.891,40.6501 C418.791,41.8501 421.041,43.6501 421.041,47.7501 C421.041,52.0501 417.491,54.8001 411.791,54.8001 C404.491,54.8001 402.841,51.0501 401.941,47.7001 C401.641,46.6501 400.691,46.2001 399.741,46.2001 C399.441,46.2001 399.191,46.2501 398.891,46.3001 C397.841,46.5501 396.991,47.3001 396.991,48.4001 C396.991,48.6001 397.041,48.8001 397.091,49.0501 C398.291,53.1001 400.641,59.0001 412.041,59.0001 C420.991,59.0001 425.941,54.1501 425.941,47.7001 C425.941,40.4501 421.691,37.8001 413.891,36.1501 L410.191,35.4001 M437.388,42.2501 L448.688,42.2501 C456.638,42.2501 461.238,37.9001 461.238,30.4001 C461.238,23.3001 456.788,19.2501 448.888,19.2501 L437.788,19.2501 C434.238,19.2501 432.688,20.8001 432.688,24.6501 L432.688,56.3501 C432.688,57.8001 433.638,58.5001 435.038,58.5001 C436.388,58.5001 437.388,57.8001 437.388,56.4001 L437.388,42.2501 M437.388,38.0501 L437.388,25.2501 C437.388,24.1501 437.888,23.5001 438.988,23.5001 L448.588,23.5001 C453.588,23.5001 456.338,26.0001 456.338,30.5001 C456.338,35.3501 453.638,38.0501 448.588,38.0501 L437.388,38.0501 M472.275,39.9501 L489.325,39.9501 C490.525,39.9501 491.275,39.0001 491.275,37.8501 C491.275,36.6001 490.575,35.7001 489.325,35.7001 L472.275,35.7001 L472.275,25.3501 C472.275,24.1501 472.775,23.6001 473.975,23.6001 L491.575,23.6001 C492.875,23.6001 493.575,22.6501 493.575,21.4001 C493.575,20.1501 492.875,19.2501 491.575,19.2501 L472.675,19.2501 C469.125,19.2501 467.575,20.8001 467.575,24.6501 L467.575,52.8501 C467.575,56.6501 469.125,58.2001 472.675,58.2001 L492.025,58.2001 C493.325,58.2001 494.025,57.2001 494.025,56.0001 C494.025,54.7501 493.325,53.8501 492.025,53.8501 L474.125,53.8501 C473.025,53.8501 472.275,53.4001 472.275,52.2501 L472.275,39.9501 M505.869,46.8001 L523.169,46.8001 L527.119,57.1501 C527.469,58.1001 528.269,58.5501 529.169,58.5501 C529.469,58.5501 529.769,58.5001 530.069,58.4001 C531.069,58.1501 531.869,57.4001 531.869,56.4001 C531.869,56.1001 531.819,55.8501 531.669,55.5501 L518.069,21.3001 C517.419,19.6001 516.119,18.9501 514.519,18.9501 C512.969,18.9501 511.719,19.6001 511.069,21.3001 L497.469,55.4501 C497.369,55.7501 497.319,56.0001 497.319,56.3001 C497.319,57.2501 498.069,58.1001 499.069,58.3501 C499.419,58.4501 499.719,58.5001 500.069,58.5001 C500.919,58.5001 501.669,58.1001 502.019,57.1001 L505.869,46.8001 M507.369,42.6001 L513.019,28.1001 C513.619,26.6001 514.119,25.0001 514.569,23.3001 C515.019,25.0001 515.569,26.6001 516.119,28.0501 L521.669,42.6001 L507.369,42.6001 M551.469,35.7501 L564.369,22.7501 C564.719,22.4001 564.869,21.9001 564.869,21.4001 C564.869,20.7001 564.569,19.9501 564.019,19.5001 C563.569,19.1001 562.969,18.9001 562.369,18.9001 C561.819,18.9001 561.219,19.1001 560.819,19.5501 L542.719,38.4501 L542.719,21.0001 C542.719,19.6001 541.719,18.9501 540.369,18.9501 C538.969,18.9501 537.969,19.6001 537.969,21.0001 L537.969,56.4501 C537.969,57.8001 538.969,58.5001 540.369,58.5001 C541.719,58.5001 542.719,57.8001 542.719,56.4501 L542.719,44.4501 L548.169,38.9001 L562.319,57.7001 C562.719,58.2501 563.419,58.5501 564.069,58.5501 C564.619,58.5501 565.119,58.4001 565.569,58.0501 C566.219,57.5501 566.669,56.8001 566.669,56.0501 C566.669,55.6001 566.519,55.1501 566.219,54.7501 L551.469,35.7501 Z" style="stroke:none;fill-rule:nonzero;fill:#fefff3;fill-opacity:0.623529;"/>
        </g>
        <g id="Shape2">
            <desc shapeID="2" type="2" basicInfo-basicType="0" basicInfo-roundedRectRadius="12" basicInfo-polygonSides="6" basicInfo-starPoints="5" bounding="rect(-320,-38.6326,640,77.2653)" text="COCOROBO speaks your massage&#10;in Connectly lab!" font-familyName="ヒラギノ丸ゴ ProN" font-pixelSize="16" font-bold="0" font-underline="0" font-alignment="1" strokeStyle="0" markerStart="0" markerEnd="0" shadowEnabled="0" shadowOffsetX="0" shadowOffsetY="2" shadowBlur="4" shadowOpacity="160" blurEnabled="0" blurRadius="4" transform="matrix(1,0,0,1,320.238,101.139)" pers-center="0,0" pers-size="573.236,0" pers-start="0,0" pers-end="0,0" locked="0" mesh="" flag=""/>
            <path id="shapePath2" d="M190.794,83.0001 C187.465,83.0001 185.274,85.5761 185.274,89.4641 C185.274,93.4481 187.465,95.9601 190.906,95.9601 C193.754,95.9601 195.098,94.1681 195.658,92.5841 C195.69,92.4881 195.706,92.4081 195.706,92.3121 C195.706,91.9761 195.418,91.7361 195.146,91.6721 C195.034,91.6401 194.922,91.6241 194.826,91.6241 C194.522,91.6241 194.234,91.7681 194.105,92.1201 C193.69,93.4001 192.777,94.5521 190.858,94.5521 C188.458,94.5521 186.874,92.5681 186.874,89.4801 C186.874,86.3281 188.458,84.3921 190.858,84.3921 C192.682,84.3921 193.482,85.3361 193.962,86.4881 C194.105,86.7921 194.362,86.9041 194.634,86.9041 C194.762,86.9041 194.889,86.8881 195.018,86.8401 C195.258,86.7601 195.514,86.5361 195.514,86.2001 C195.514,86.1041 195.497,85.9921 195.45,85.8801 C194.874,84.4721 193.609,83.0001 190.794,83.0001 M202.733,83.0001 C199.293,83.0001 197.133,85.5441 197.133,89.4641 C197.133,93.4321 199.309,95.9601 202.733,95.9601 C206.157,95.9601 208.301,93.4161 208.301,89.4801 C208.301,85.5281 206.157,83.0001 202.733,83.0001 M202.733,84.3761 C205.165,84.3761 206.717,86.3601 206.717,89.3841 C206.717,92.6001 205.229,94.5681 202.733,94.5681 C200.285,94.5681 198.717,92.5681 198.717,89.4801 C198.717,86.3921 200.253,84.3761 202.733,84.3761 M215.528,83.0001 C212.2,83.0001 210.008,85.5761 210.008,89.4641 C210.008,93.4481 212.2,95.9601 215.64,95.9601 C218.488,95.9601 219.832,94.1681 220.392,92.5841 C220.424,92.4881 220.44,92.4081 220.44,92.3121 C220.44,91.9761 220.152,91.7361 219.88,91.6721 C219.768,91.6401 219.656,91.6241 219.56,91.6241 C219.256,91.6241 218.968,91.7681 218.84,92.1201 C218.424,93.4001 217.512,94.5521 215.592,94.5521 C213.192,94.5521 211.608,92.5681 211.608,89.4801 C211.608,86.3281 213.192,84.3921 215.592,84.3921 C217.416,84.3921 218.216,85.3361 218.696,86.4881 C218.84,86.7921 219.096,86.9041 219.368,86.9041 C219.496,86.9041 219.624,86.8881 219.752,86.8401 C219.992,86.7601 220.248,86.5361 220.248,86.2001 C220.248,86.1041 220.232,85.9921 220.184,85.8801 C219.608,84.4721 218.344,83.0001 215.528,83.0001 M227.467,83.0001 C224.027,83.0001 221.867,85.5441 221.867,89.4641 C221.867,93.4321 224.043,95.9601 227.467,95.9601 C230.891,95.9601 233.035,93.4161 233.035,89.4801 C233.035,85.5281 230.891,83.0001 227.467,83.0001 M227.467,84.3761 C229.899,84.3761 231.451,86.3601 231.451,89.3841 C231.451,92.6001 229.963,94.5681 227.467,94.5681 C225.019,94.5681 223.451,92.5681 223.451,89.4801 C223.451,86.3921 224.987,84.3761 227.467,84.3761 M244.374,93.9121 C243.19,90.9201 242.678,89.8481 241.718,89.5601 C243.206,89.2401 244.246,88.2801 244.246,86.4401 C244.246,84.4721 242.966,83.2401 240.646,83.2401 L236.902,83.2401 C235.766,83.2401 235.27,83.7361 235.27,84.9681 L235.27,95.1121 C235.27,95.5761 235.59,95.8001 236.038,95.8001 C236.47,95.8001 236.774,95.5761 236.774,95.1281 L236.774,90.1041 L239.718,90.1041 C241.318,90.1041 241.766,91.2401 242.918,94.3601 L243.318,95.3841 C243.43,95.6721 243.67,95.8001 243.942,95.8001 C244.054,95.8001 244.182,95.7841 244.294,95.7521 C244.614,95.6721 244.822,95.4321 244.822,95.1281 C244.822,95.0321 244.806,94.9521 244.774,94.8561 L244.374,93.9121 M236.774,88.7921 L236.774,85.1281 C236.774,84.7441 236.966,84.5681 237.302,84.5681 L240.55,84.5681 C241.974,84.5681 242.71,85.3041 242.71,86.6641 C242.71,87.9441 241.814,88.7921 240.454,88.7921 L236.774,88.7921 M251.858,83.0001 C248.418,83.0001 246.258,85.5441 246.258,89.4641 C246.258,93.4321 248.434,95.9601 251.858,95.9601 C255.282,95.9601 257.426,93.4161 257.426,89.4801 C257.426,85.5281 255.282,83.0001 251.858,83.0001 M251.858,84.3761 C254.29,84.3761 255.842,86.3601 255.842,89.3841 C255.842,92.6001 254.354,94.5681 251.858,94.5681 C249.41,94.5681 247.842,92.5681 247.842,89.4801 C247.842,86.3921 249.378,84.3761 251.858,84.3761 M265.229,95.7041 C267.693,95.7041 269.117,94.4241 269.117,92.2481 C269.117,90.5201 268.285,89.4641 266.653,89.1281 C268.029,88.6801 268.685,87.7841 268.685,86.2641 C268.685,84.3441 267.357,83.2401 265.053,83.2401 L261.277,83.2401 C260.141,83.2401 259.661,83.7361 259.661,84.9681 L259.661,93.9921 C259.661,95.2081 260.141,95.7041 261.277,95.7041 L265.229,95.7041 M261.149,88.5041 L261.149,85.0801 C261.149,84.7601 261.309,84.5681 261.613,84.5681 L264.941,84.5681 C266.397,84.5681 267.149,85.2081 267.149,86.4561 C267.149,87.7361 266.349,88.5041 264.973,88.5041 L261.149,88.5041 M261.149,89.8161 L265.021,89.8161 C266.653,89.8161 267.533,90.6001 267.533,92.1041 C267.533,93.5761 266.669,94.3761 265.053,94.3761 L261.661,94.3761 C261.309,94.3761 261.149,94.2001 261.149,93.8481 L261.149,89.8161 M276.342,83.0001 C272.902,83.0001 270.742,85.5441 270.742,89.4641 C270.742,93.4321 272.918,95.9601 276.342,95.9601 C279.766,95.9601 281.91,93.4161 281.91,89.4801 C281.91,85.5281 279.766,83.0001 276.342,83.0001 M276.342,84.3761 C278.774,84.3761 280.326,86.3601 280.326,89.3841 C280.326,92.6001 278.838,94.5681 276.342,94.5681 C273.894,94.5681 272.326,92.5681 272.326,89.4801 C272.326,86.3921 273.862,84.3761 276.342,84.3761 M292.658,91.8161 C294.114,92.1041 294.53,92.5361 294.53,93.3201 C294.53,94.1361 293.698,94.6961 292.418,94.6961 C291.154,94.6961 290.498,94.2321 290.21,93.3041 C290.114,93.0001 289.826,92.8721 289.522,92.8721 C289.458,92.8721 289.378,92.8881 289.298,92.9041 C288.994,92.9681 288.722,93.1921 288.722,93.5121 C288.722,93.5761 288.738,93.6401 288.754,93.7201 C289.17,95.1441 290.37,95.9601 292.418,95.9601 C294.658,95.9601 295.97,94.8241 295.97,93.2881 C295.97,91.6081 295.138,91.0001 293.058,90.5681 L292.066,90.3601 C290.722,90.0721 290.418,89.7521 290.418,89.0161 C290.418,88.3441 291.026,87.8161 292.322,87.8161 C293.234,87.8161 293.938,88.1841 294.146,88.9041 C294.226,89.2081 294.514,89.3361 294.802,89.3361 C294.882,89.3361 294.978,89.3201 295.058,89.3041 C295.346,89.2241 295.618,89.0161 295.618,88.7121 C295.618,88.6481 295.602,88.5841 295.586,88.5201 C295.186,87.3521 294.05,86.6001 292.274,86.6001 C290.21,86.6001 288.962,87.5921 288.962,89.0481 C288.962,90.5681 289.778,91.2561 291.746,91.6401 L292.658,91.8161 M299.189,95.0161 C299.189,94.7281 299.173,94.3921 299.109,94.0881 C299.653,95.2081 300.565,95.9441 302.053,95.9441 C304.437,95.9441 305.877,94.0561 305.877,91.2081 C305.877,88.3601 304.517,86.6161 302.117,86.6161 C300.565,86.6161 299.685,87.3681 299.125,88.5041 C299.173,88.2321 299.189,87.8481 299.189,87.6241 L299.189,87.3361 C299.189,86.9361 298.885,86.7441 298.485,86.7441 C298.037,86.7441 297.765,86.9521 297.765,87.3681 L297.765,98.5361 C297.765,98.9361 298.037,99.1601 298.485,99.1601 C298.917,99.1601 299.189,98.9361 299.189,98.5361 L299.189,95.0161 M301.909,87.8641 C303.525,87.8641 304.405,89.1601 304.405,91.2401 C304.405,93.3041 303.493,94.6801 301.877,94.6801 C300.197,94.6801 299.157,93.2401 299.157,91.2561 C299.157,89.2881 300.149,87.8641 301.909,87.8641 M314.373,91.5441 C314.869,91.5441 315.173,91.2401 315.173,90.6641 C315.173,90.6161 315.173,90.5841 315.173,90.5361 C315.013,88.4401 313.701,86.6161 311.365,86.6161 C308.757,86.6161 307.317,88.5521 307.317,91.3201 C307.317,94.0881 308.837,95.9441 311.461,95.9441 C313.541,95.9441 314.469,94.8881 314.981,93.8321 C315.045,93.7361 315.061,93.6401 315.061,93.5441 C315.061,93.2561 314.837,93.0641 314.565,92.9841 C314.453,92.9521 314.341,92.9201 314.229,92.9201 C314.005,92.9201 313.797,93.0321 313.653,93.3201 C313.269,94.1681 312.629,94.7441 311.477,94.7441 C309.749,94.7441 308.773,93.5121 308.741,91.5441 L314.373,91.5441 M308.789,90.3761 C308.997,88.8081 309.829,87.7841 311.365,87.7841 C312.837,87.7841 313.525,88.9521 313.717,90.0881 C313.717,90.1201 313.717,90.1521 313.717,90.1681 C313.717,90.3121 313.653,90.3761 313.477,90.3761 L308.789,90.3761 M322.313,90.0401 C320.601,90.0721 319.769,90.1681 318.889,90.4081 C317.369,90.8241 316.473,91.7841 316.473,93.2881 C316.473,94.9361 317.545,95.9281 319.305,95.9281 C320.889,95.9281 321.737,95.3041 322.345,94.6161 C322.361,94.9361 322.393,95.2241 322.441,95.4161 C322.505,95.7041 322.793,95.8001 323.113,95.8001 C323.161,95.8001 323.209,95.8001 323.257,95.8001 C323.657,95.7681 323.897,95.5441 323.897,95.2881 C323.897,95.2401 323.881,95.1761 323.865,95.1281 C323.769,94.8241 323.689,94.2801 323.689,93.7201 L323.689,89.3521 C323.689,87.4641 322.633,86.6161 320.489,86.6161 C319.193,86.6161 318.473,86.8881 317.913,87.3201 C317.545,87.6081 317.129,88.0721 316.969,88.5681 C316.953,88.6321 316.937,88.6961 316.937,88.7601 C316.937,89.0481 317.161,89.2721 317.465,89.3681 C317.577,89.4161 317.705,89.4321 317.833,89.4321 C318.105,89.4321 318.345,89.3201 318.457,89.0161 C318.729,88.2801 319.305,87.8321 320.473,87.8321 C321.737,87.8321 322.313,88.2961 322.313,89.3521 L322.313,90.0401 M322.313,92.2641 C322.313,92.8721 322.201,93.1761 321.897,93.5601 C321.385,94.2001 320.553,94.6961 319.545,94.6961 C318.585,94.6961 317.945,94.1361 317.945,93.3041 C317.945,92.5361 318.281,92.0401 318.921,91.7201 C319.561,91.4001 320.441,91.2401 322.313,91.1921 L322.313,92.2641 M327.518,92.5521 L328.734,91.3841 L331.71,95.5441 C331.837,95.7201 332.046,95.8001 332.254,95.8001 C332.414,95.8001 332.557,95.7681 332.686,95.6881 C332.893,95.5601 333.053,95.3201 333.053,95.0801 C333.053,94.9521 333.022,94.8401 332.941,94.7281 L329.758,90.4881 L332.462,87.9601 C332.605,87.8161 332.669,87.6721 332.669,87.5121 C332.669,87.3361 332.574,87.1441 332.43,86.9841 C332.302,86.8241 332.109,86.7441 331.902,86.7441 C331.742,86.7441 331.566,86.8081 331.422,86.9521 L327.518,90.8401 L327.518,83.7361 C327.518,83.3201 327.229,83.1441 326.814,83.1441 C326.366,83.1441 326.078,83.3521 326.078,83.7681 L326.078,95.1601 C326.078,95.5921 326.35,95.8001 326.798,95.8001 C327.229,95.8001 327.518,95.5921 327.518,95.1601 L327.518,92.5521 M338.064,91.8161 C339.52,92.1041 339.936,92.5361 339.936,93.3201 C339.936,94.1361 339.104,94.6961 337.824,94.6961 C336.56,94.6961 335.904,94.2321 335.616,93.3041 C335.52,93.0001 335.232,92.8721 334.928,92.8721 C334.864,92.8721 334.784,92.8881 334.704,92.9041 C334.4,92.9681 334.128,93.1921 334.128,93.5121 C334.128,93.5761 334.144,93.6401 334.16,93.7201 C334.576,95.1441 335.776,95.9601 337.824,95.9601 C340.064,95.9601 341.376,94.8241 341.376,93.2881 C341.376,91.6081 340.544,91.0001 338.464,90.5681 L337.472,90.3601 C336.128,90.0721 335.824,89.7521 335.824,89.0161 C335.824,88.3441 336.432,87.8161 337.728,87.8161 C338.64,87.8161 339.344,88.1841 339.552,88.9041 C339.632,89.2081 339.92,89.3361 340.208,89.3361 C340.288,89.3361 340.384,89.3201 340.464,89.3041 C340.752,89.2241 341.024,89.0161 341.024,88.7121 C341.024,88.6481 341.008,88.5841 340.992,88.5201 C340.592,87.3521 339.456,86.6001 337.68,86.6001 C335.616,86.6001 334.368,87.5921 334.368,89.0481 C334.368,90.5681 335.184,91.2561 337.152,91.6401 L338.064,91.8161 M352.259,92.4881 C352.083,92.9521 351.859,93.5601 351.731,94.0561 C351.587,93.5601 351.443,92.9681 351.251,92.4561 L349.235,87.1441 C349.123,86.8561 348.883,86.7441 348.627,86.7441 C348.515,86.7441 348.403,86.7601 348.291,86.7921 C348.003,86.8881 347.763,87.1281 347.763,87.4161 C347.763,87.4961 347.779,87.5921 347.811,87.6721 L351.043,95.5121 L350.595,96.6321 C350.307,97.3681 349.971,97.9761 349.283,97.9761 C348.995,97.9761 348.707,97.8641 348.483,97.7681 C348.371,97.7201 348.275,97.7041 348.179,97.7041 C347.907,97.7041 347.699,97.8801 347.587,98.1521 C347.539,98.2801 347.507,98.3921 347.507,98.5201 C347.507,98.7601 347.635,98.9841 347.955,99.0961 C348.323,99.2401 348.707,99.3041 349.107,99.3041 C350.675,99.3041 351.331,98.3921 351.891,97.0161 L355.667,87.6561 C355.699,87.5601 355.715,87.4641 355.715,87.3841 C355.715,87.0961 355.491,86.8721 355.187,86.7921 C355.091,86.7761 354.995,86.7601 354.899,86.7601 C354.627,86.7601 354.387,86.8721 354.275,87.1761 L352.259,92.4881 M361.024,86.6161 C358.432,86.6161 356.88,88.4881 356.88,91.2561 C356.88,94.1041 358.416,95.9601 361.056,95.9601 C363.552,95.9601 365.088,94.0401 365.088,91.2561 C365.088,88.4721 363.584,86.6161 361.024,86.6161 M361.072,87.8481 C362.704,87.8481 363.616,89.2241 363.616,91.2401 C363.616,93.3681 362.704,94.7281 360.96,94.7281 C359.312,94.7281 358.352,93.3361 358.352,91.3041 C358.352,89.1761 359.344,87.8481 361.072,87.8481 M366.889,92.8081 C366.889,94.7601 367.928,95.9441 369.816,95.9441 C371.417,95.9441 372.345,95.1281 372.841,94.0081 C372.793,94.2641 372.745,94.5841 372.745,94.7601 L372.745,95.2081 C372.745,95.6081 373.049,95.8001 373.48,95.8001 C373.897,95.8001 374.185,95.5921 374.185,95.1601 L374.185,87.3841 C374.185,86.9521 373.88,86.7441 373.465,86.7441 C373.033,86.7441 372.729,86.9521 372.729,87.3841 L372.729,91.8321 C372.729,92.4561 372.569,92.9521 372.185,93.4961 C371.641,94.2481 370.953,94.6481 370.104,94.6481 C368.921,94.6481 368.361,93.8801 368.361,92.5041 L368.361,87.3841 C368.361,86.9521 368.057,86.7441 367.625,86.7441 C367.193,86.7441 366.889,86.9521 366.889,87.3841 L366.889,92.8081 M376.707,95.1601 C376.707,95.5921 377.011,95.8001 377.459,95.8001 C377.859,95.8001 378.179,95.5921 378.179,95.1601 L378.179,90.7441 C378.195,90.0721 378.435,89.4801 378.851,88.9681 C379.251,88.4561 379.779,88.1041 380.467,88.0881 C380.803,88.0881 381.011,88.1361 381.235,88.1841 C381.283,88.2001 381.331,88.2001 381.379,88.2001 C381.715,88.2001 381.939,87.9121 382.003,87.5761 C382.019,87.4801 382.035,87.3841 382.035,87.3041 C382.035,87.0001 381.891,86.7761 381.523,86.7281 C381.299,86.6801 381.123,86.6481 380.883,86.6481 C380.771,86.6481 380.659,86.6481 380.531,86.6641 C379.155,86.7121 378.339,87.7041 378.083,88.4721 C378.115,88.2161 378.179,87.9441 378.179,87.7201 L378.179,87.3681 C378.179,86.9521 377.859,86.7441 377.459,86.7441 C377.011,86.7441 376.707,86.9521 376.707,87.3681 L376.707,95.1601 M400.51,89.7201 C400.51,87.7681 399.758,86.6321 397.87,86.6321 C396.094,86.6321 395.518,87.5441 395.054,88.3761 C394.846,87.2721 394.078,86.6321 392.67,86.6321 C391.102,86.6321 390.43,87.5281 390.03,88.4721 C390.078,88.2321 390.142,87.9121 390.142,87.7041 L390.142,87.3681 C390.142,86.9521 389.854,86.7441 389.454,86.7441 C389.006,86.7441 388.702,86.9521 388.702,87.3681 L388.702,95.1601 C388.702,95.5921 388.99,95.8001 389.438,95.8001 C389.854,95.8001 390.142,95.5921 390.142,95.1601 L390.142,90.5201 C390.142,89.9921 390.286,89.4161 390.574,88.9841 C390.958,88.4081 391.47,87.9121 392.318,87.9121 C393.454,87.9121 393.854,88.6801 393.854,90.0401 L393.854,95.1601 C393.854,95.5921 394.126,95.8001 394.574,95.8001 C394.99,95.8001 395.294,95.5921 395.294,95.1601 L395.294,90.4401 C395.294,89.9601 395.486,89.3361 395.726,89.0001 C396.11,88.4241 396.67,87.9121 397.518,87.9121 C398.67,87.9121 399.054,88.6801 399.054,90.0401 L399.054,95.1601 C399.054,95.5921 399.326,95.8001 399.774,95.8001 C400.19,95.8001 400.51,95.5921 400.51,95.1601 L400.51,89.7201 M408.141,90.0401 C406.429,90.0721 405.597,90.1681 404.717,90.4081 C403.197,90.8241 402.301,91.7841 402.301,93.2881 C402.301,94.9361 403.373,95.9281 405.133,95.9281 C406.717,95.9281 407.565,95.3041 408.173,94.6161 C408.189,94.9361 408.221,95.2241 408.269,95.4161 C408.333,95.7041 408.621,95.8001 408.941,95.8001 C408.989,95.8001 409.037,95.8001 409.085,95.8001 C409.485,95.7681 409.725,95.5441 409.725,95.2881 C409.725,95.2401 409.709,95.1761 409.693,95.1281 C409.597,94.8241 409.517,94.2801 409.517,93.7201 L409.517,89.3521 C409.517,87.4641 408.461,86.6161 406.317,86.6161 C405.021,86.6161 404.301,86.8881 403.741,87.3201 C403.373,87.6081 402.957,88.0721 402.797,88.5681 C402.781,88.6321 402.765,88.6961 402.765,88.7601 C402.765,89.0481 402.989,89.2721 403.293,89.3681 C403.405,89.4161 403.533,89.4321 403.661,89.4321 C403.933,89.4321 404.173,89.3201 404.285,89.0161 C404.557,88.2801 405.133,87.8321 406.301,87.8321 C407.565,87.8321 408.141,88.2961 408.141,89.3521 L408.141,90.0401 M408.141,92.2641 C408.141,92.8721 408.029,93.1761 407.725,93.5601 C407.213,94.2001 406.381,94.6961 405.373,94.6961 C404.413,94.6961 403.773,94.1361 403.773,93.3041 C403.773,92.5361 404.109,92.0401 404.749,91.7201 C405.389,91.4001 406.269,91.2401 408.141,91.1921 L408.141,92.2641 M415.33,91.8161 C416.786,92.1041 417.202,92.5361 417.202,93.3201 C417.202,94.1361 416.37,94.6961 415.09,94.6961 C413.826,94.6961 413.17,94.2321 412.882,93.3041 C412.786,93.0001 412.498,92.8721 412.194,92.8721 C412.13,92.8721 412.05,92.8881 411.97,92.9041 C411.666,92.9681 411.394,93.1921 411.394,93.5121 C411.394,93.5761 411.41,93.6401 411.426,93.7201 C411.842,95.1441 413.042,95.9601 415.09,95.9601 C417.33,95.9601 418.642,94.8241 418.642,93.2881 C418.642,91.6081 417.81,91.0001 415.73,90.5681 L414.738,90.3601 C413.394,90.0721 413.09,89.7521 413.09,89.0161 C413.09,88.3441 413.698,87.8161 414.994,87.8161 C415.906,87.8161 416.61,88.1841 416.818,88.9041 C416.898,89.2081 417.186,89.3361 417.474,89.3361 C417.554,89.3361 417.65,89.3201 417.73,89.3041 C418.018,89.2241 418.29,89.0161 418.29,88.7121 C418.29,88.6481 418.274,88.5841 418.258,88.5201 C417.858,87.3521 416.722,86.6001 414.946,86.6001 C412.882,86.6001 411.634,87.5921 411.634,89.0481 C411.634,90.5681 412.45,91.2561 414.418,91.6401 L415.33,91.8161 M423.876,91.8161 C425.333,92.1041 425.749,92.5361 425.749,93.3201 C425.749,94.1361 424.917,94.6961 423.637,94.6961 C422.372,94.6961 421.716,94.2321 421.428,93.3041 C421.333,93.0001 421.044,92.8721 420.741,92.8721 C420.677,92.8721 420.596,92.8881 420.517,92.9041 C420.213,92.9681 419.94,93.1921 419.94,93.5121 C419.94,93.5761 419.957,93.6401 419.973,93.7201 C420.388,95.1441 421.589,95.9601 423.637,95.9601 C425.876,95.9601 427.189,94.8241 427.189,93.2881 C427.189,91.6081 426.357,91.0001 424.276,90.5681 L423.285,90.3601 C421.94,90.0721 421.637,89.7521 421.637,89.0161 C421.637,88.3441 422.245,87.8161 423.54,87.8161 C424.453,87.8161 425.156,88.1841 425.365,88.9041 C425.445,89.2081 425.733,89.3361 426.021,89.3361 C426.101,89.3361 426.197,89.3201 426.276,89.3041 C426.565,89.2241 426.837,89.0161 426.837,88.7121 C426.837,88.6481 426.82,88.5841 426.805,88.5201 C426.405,87.3521 425.268,86.6001 423.492,86.6001 C421.428,86.6001 420.181,87.5921 420.181,89.0481 C420.181,90.5681 420.997,91.2561 422.965,91.6401 L423.876,91.8161 M434.391,90.0401 C432.679,90.0721 431.847,90.1681 430.967,90.4081 C429.447,90.8241 428.551,91.7841 428.551,93.2881 C428.551,94.9361 429.623,95.9281 431.383,95.9281 C432.967,95.9281 433.815,95.3041 434.423,94.6161 C434.439,94.9361 434.471,95.2241 434.519,95.4161 C434.583,95.7041 434.871,95.8001 435.191,95.8001 C435.239,95.8001 435.287,95.8001 435.335,95.8001 C435.735,95.7681 435.975,95.5441 435.975,95.2881 C435.975,95.2401 435.959,95.1761 435.943,95.1281 C435.847,94.8241 435.767,94.2801 435.767,93.7201 L435.767,89.3521 C435.767,87.4641 434.711,86.6161 432.567,86.6161 C431.271,86.6161 430.551,86.8881 429.991,87.3201 C429.623,87.6081 429.207,88.0721 429.047,88.5681 C429.031,88.6321 429.015,88.6961 429.015,88.7601 C429.015,89.0481 429.239,89.2721 429.543,89.3681 C429.655,89.4161 429.783,89.4321 429.911,89.4321 C430.183,89.4321 430.423,89.3201 430.535,89.0161 C430.807,88.2801 431.383,87.8321 432.551,87.8321 C433.815,87.8321 434.391,88.2961 434.391,89.3521 L434.391,90.0401 M434.391,92.2641 C434.391,92.8721 434.279,93.1761 433.975,93.5601 C433.463,94.2001 432.631,94.6961 431.623,94.6961 C430.663,94.6961 430.023,94.1361 430.023,93.3041 C430.023,92.5361 430.359,92.0401 430.999,91.7201 C431.639,91.4001 432.519,91.2401 434.391,91.1921 L434.391,92.2641 M444.364,87.8001 C444.364,87.9761 444.412,88.2801 444.428,88.4561 C443.98,87.4321 443.068,86.6321 441.612,86.6321 C439.148,86.6321 437.724,88.4881 437.724,91.2401 C437.724,93.9121 439.308,95.6721 441.58,95.6721 C442.988,95.6721 443.9,94.9681 444.428,93.9601 C444.396,94.1841 444.364,94.5361 444.364,94.7281 C444.348,97.0961 443.628,98.1041 441.628,98.1041 C440.652,98.1041 439.948,97.7681 439.356,97.0801 C439.228,96.9361 439.068,96.8721 438.892,96.8721 C438.732,96.8721 438.556,96.9361 438.428,97.0321 C438.236,97.1761 438.124,97.3841 438.124,97.5921 C438.124,97.7201 438.172,97.8321 438.252,97.9441 C438.86,98.7281 439.964,99.3041 441.692,99.3041 C443.804,99.3041 445.74,98.4721 445.74,94.7921 L445.74,87.3841 C445.74,86.9521 445.484,86.7441 445.052,86.7441 C444.588,86.7441 444.364,86.9841 444.364,87.3201 L444.364,87.8001 M441.788,87.8481 C443.42,87.8481 444.396,89.2241 444.396,91.1281 C444.396,93.1121 443.404,94.5041 441.772,94.5041 C440.284,94.5041 439.196,93.2721 439.196,91.2401 C439.196,89.1761 440.156,87.8481 441.788,87.8481 M454.655,91.5441 C455.151,91.5441 455.455,91.2401 455.455,90.6641 C455.455,90.6161 455.455,90.5841 455.455,90.5361 C455.295,88.4401 453.983,86.6161 451.647,86.6161 C449.039,86.6161 447.599,88.5521 447.599,91.3201 C447.599,94.0881 449.119,95.9441 451.743,95.9441 C453.823,95.9441 454.751,94.8881 455.263,93.8321 C455.327,93.7361 455.343,93.6401 455.343,93.5441 C455.343,93.2561 455.119,93.0641 454.847,92.9841 C454.735,92.9521 454.623,92.9201 454.511,92.9201 C454.287,92.9201 454.079,93.0321 453.935,93.3201 C453.551,94.1681 452.911,94.7441 451.759,94.7441 C450.031,94.7441 449.055,93.5121 449.023,91.5441 L454.655,91.5441 M449.071,90.3761 C449.279,88.8081 450.111,87.7841 451.647,87.7841 C453.119,87.7841 453.807,88.9521 453.999,90.0881 C453.999,90.1201 453.999,90.1521 453.999,90.1681 C453.999,90.3121 453.935,90.3761 453.759,90.3761 L449.071,90.3761 M256.718,119.16 C256.718,119.592 256.99,119.8 257.438,119.8 C257.87,119.8 258.174,119.592 258.174,119.16 L258.174,111.368 C258.174,110.952 257.87,110.744 257.438,110.744 C256.99,110.744 256.718,110.952 256.718,111.368 L256.718,119.16 M257.454,107.128 C256.846,107.128 256.366,107.592 256.366,108.2 C256.366,108.824 256.846,109.288 257.454,109.288 C258.046,109.288 258.526,108.824 258.526,108.2 C258.526,107.592 258.046,107.128 257.454,107.128 M267.812,113.736 C267.812,111.768 266.788,110.616 264.884,110.616 C263.364,110.616 262.404,111.336 261.844,112.472 C261.86,112.168 261.908,112.008 261.908,111.8 L261.908,111.368 C261.908,110.952 261.62,110.744 261.204,110.744 C260.756,110.744 260.452,110.952 260.452,111.368 L260.452,119.16 C260.452,119.592 260.74,119.8 261.188,119.8 C261.604,119.8 261.908,119.592 261.908,119.16 L261.908,114.68 C261.908,114.056 262.068,113.592 262.468,113.048 C263.012,112.296 263.732,111.912 264.596,111.912 C265.796,111.912 266.34,112.68 266.34,114.04 L266.34,119.16 C266.34,119.592 266.644,119.8 267.076,119.8 C267.492,119.8 267.812,119.592 267.812,119.16 L267.812,113.736 M280.59,107 C277.262,107 275.07,109.576 275.07,113.464 C275.07,117.448 277.262,119.96 280.702,119.96 C283.55,119.96 284.894,118.168 285.454,116.584 C285.486,116.488 285.502,116.408 285.502,116.312 C285.502,115.976 285.214,115.736 284.942,115.672 C284.83,115.64 284.718,115.624 284.622,115.624 C284.318,115.624 284.03,115.768 283.902,116.12 C283.486,117.4 282.574,118.552 280.654,118.552 C278.254,118.552 276.67,116.568 276.67,113.48 C276.67,110.328 278.254,108.392 280.654,108.392 C282.478,108.392 283.278,109.336 283.758,110.488 C283.902,110.792 284.158,110.904 284.43,110.904 C284.558,110.904 284.686,110.888 284.814,110.84 C285.054,110.76 285.31,110.536 285.31,110.2 C285.31,110.104 285.294,109.992 285.246,109.88 C284.67,108.472 283.406,107 280.59,107 M290.946,110.616 C288.354,110.616 286.802,112.488 286.802,115.256 C286.802,118.104 288.338,119.96 290.978,119.96 C293.474,119.96 295.01,118.04 295.01,115.256 C295.01,112.472 293.506,110.616 290.946,110.616 M290.994,111.848 C292.626,111.848 293.538,113.224 293.538,115.24 C293.538,117.368 292.626,118.728 290.882,118.728 C289.234,118.728 288.274,117.336 288.274,115.304 C288.274,113.176 289.266,111.848 290.994,111.848 M304.218,113.736 C304.218,111.768 303.194,110.616 301.29,110.616 C299.77,110.616 298.81,111.336 298.25,112.472 C298.266,112.168 298.314,112.008 298.314,111.8 L298.314,111.368 C298.314,110.952 298.026,110.744 297.61,110.744 C297.162,110.744 296.858,110.952 296.858,111.368 L296.858,119.16 C296.858,119.592 297.146,119.8 297.594,119.8 C298.01,119.8 298.314,119.592 298.314,119.16 L298.314,114.68 C298.314,114.056 298.474,113.592 298.874,113.048 C299.418,112.296 300.138,111.912 301.002,111.912 C302.202,111.912 302.746,112.68 302.746,114.04 L302.746,119.16 C302.746,119.592 303.05,119.8 303.482,119.8 C303.898,119.8 304.218,119.592 304.218,119.16 L304.218,113.736 M313.812,113.736 C313.812,111.768 312.788,110.616 310.884,110.616 C309.364,110.616 308.404,111.336 307.844,112.472 C307.86,112.168 307.908,112.008 307.908,111.8 L307.908,111.368 C307.908,110.952 307.62,110.744 307.204,110.744 C306.756,110.744 306.452,110.952 306.452,111.368 L306.452,119.16 C306.452,119.592 306.74,119.8 307.188,119.8 C307.604,119.8 307.908,119.592 307.908,119.16 L307.908,114.68 C307.908,114.056 308.068,113.592 308.468,113.048 C309.012,112.296 309.732,111.912 310.596,111.912 C311.796,111.912 312.34,112.68 312.34,114.04 L312.34,119.16 C312.34,119.592 312.644,119.8 313.076,119.8 C313.492,119.8 313.812,119.592 313.812,119.16 L313.812,113.736 M322.686,115.544 C323.182,115.544 323.486,115.24 323.486,114.664 C323.486,114.616 323.486,114.584 323.486,114.536 C323.326,112.44 322.014,110.616 319.678,110.616 C317.07,110.616 315.63,112.552 315.63,115.32 C315.63,118.088 317.15,119.944 319.774,119.944 C321.854,119.944 322.782,118.888 323.294,117.832 C323.358,117.736 323.374,117.64 323.374,117.544 C323.374,117.256 323.15,117.064 322.878,116.984 C322.766,116.952 322.654,116.92 322.542,116.92 C322.318,116.92 322.11,117.032 321.966,117.32 C321.582,118.168 320.942,118.744 319.79,118.744 C318.062,118.744 317.086,117.512 317.054,115.544 L322.686,115.544 M317.102,114.376 C317.31,112.808 318.142,111.784 319.678,111.784 C321.15,111.784 321.838,112.952 322.03,114.088 C322.03,114.12 322.03,114.152 322.03,114.168 C322.03,114.312 321.966,114.376 321.79,114.376 L317.102,114.376 M324.802,115.304 C324.802,118.056 326.258,119.96 328.85,119.96 C331.026,119.96 331.874,118.808 332.306,117.704 C332.354,117.592 332.37,117.512 332.37,117.416 C332.37,117.128 332.146,116.936 331.858,116.872 C331.746,116.824 331.634,116.808 331.522,116.808 C331.266,116.808 331.042,116.936 330.93,117.24 C330.626,118.104 330.13,118.712 328.882,118.712 C327.186,118.712 326.29,117.384 326.29,115.288 C326.29,113.256 327.202,111.848 328.866,111.848 C330.082,111.848 330.562,112.472 330.866,113.288 C330.978,113.56 331.186,113.656 331.426,113.656 C331.538,113.656 331.666,113.64 331.778,113.608 C332.018,113.512 332.258,113.32 332.258,113.016 C332.258,112.952 332.242,112.856 332.21,112.776 C331.81,111.768 330.946,110.6 328.834,110.6 C326.21,110.6 324.802,112.568 324.802,115.304 M335.021,110.84 L333.789,110.84 C333.389,110.84 333.213,111.112 333.213,111.48 C333.213,111.848 333.389,112.104 333.773,112.104 L335.021,112.104 L335.021,117.592 C335.021,119.272 335.981,119.928 337.293,119.928 C337.981,119.928 338.413,119.8 338.877,119.576 C339.117,119.448 339.213,119.224 339.213,119 C339.213,118.888 339.197,118.76 339.149,118.648 C339.053,118.408 338.861,118.232 338.621,118.232 C338.525,118.232 338.429,118.264 338.333,118.312 C338.061,118.472 337.789,118.584 337.389,118.584 C336.797,118.584 336.461,118.248 336.461,117.464 L336.461,112.104 L338.509,112.104 C338.893,112.104 339.101,111.848 339.101,111.48 C339.101,111.096 338.909,110.84 338.509,110.84 L336.461,110.84 L336.461,108.904 C336.461,108.488 336.157,108.264 335.741,108.264 C335.293,108.264 335.021,108.488 335.021,108.904 L335.021,110.84 M340.499,119.16 C340.499,119.592 340.787,119.8 341.235,119.8 C341.667,119.8 341.955,119.592 341.955,119.16 L341.955,107.784 C341.955,107.352 341.667,107.144 341.235,107.144 C340.787,107.144 340.499,107.352 340.499,107.784 L340.499,119.16 M348.009,116.488 C347.833,116.952 347.609,117.56 347.481,118.056 C347.337,117.56 347.193,116.968 347.001,116.456 L344.985,111.144 C344.873,110.856 344.633,110.744 344.377,110.744 C344.265,110.744 344.153,110.76 344.041,110.792 C343.753,110.888 343.513,111.128 343.513,111.416 C343.513,111.496 343.529,111.592 343.561,111.672 L346.793,119.512 L346.345,120.632 C346.057,121.368 345.721,121.976 345.033,121.976 C344.745,121.976 344.457,121.864 344.233,121.768 C344.121,121.72 344.025,121.704 343.929,121.704 C343.657,121.704 343.449,121.88 343.337,122.152 C343.289,122.28 343.257,122.392 343.257,122.52 C343.257,122.76 343.385,122.984 343.705,123.096 C344.073,123.24 344.457,123.304 344.857,123.304 C346.425,123.304 347.081,122.392 347.641,121.016 L351.417,111.656 C351.449,111.56 351.465,111.464 351.465,111.384 C351.465,111.096 351.241,110.872 350.937,110.792 C350.841,110.776 350.745,110.76 350.649,110.76 C350.377,110.76 350.137,110.872 350.025,111.176 L348.009,116.488 M358.342,119.16 C358.342,119.592 358.63,119.8 359.078,119.8 C359.51,119.8 359.798,119.592 359.798,119.16 L359.798,107.784 C359.798,107.352 359.51,107.144 359.078,107.144 C358.63,107.144 358.342,107.352 358.342,107.784 L358.342,119.16 M367.485,114.04 C365.773,114.072 364.941,114.168 364.061,114.408 C362.541,114.824 361.645,115.784 361.645,117.288 C361.645,118.936 362.717,119.928 364.477,119.928 C366.061,119.928 366.909,119.304 367.517,118.616 C367.533,118.936 367.565,119.224 367.613,119.416 C367.677,119.704 367.965,119.8 368.285,119.8 C368.333,119.8 368.381,119.8 368.429,119.8 C368.829,119.768 369.069,119.544 369.069,119.288 C369.069,119.24 369.053,119.176 369.037,119.128 C368.941,118.824 368.861,118.28 368.861,117.72 L368.861,113.352 C368.861,111.464 367.805,110.616 365.661,110.616 C364.365,110.616 363.645,110.888 363.085,111.32 C362.717,111.608 362.301,112.072 362.141,112.568 C362.125,112.632 362.109,112.696 362.109,112.76 C362.109,113.048 362.333,113.272 362.637,113.368 C362.749,113.416 362.877,113.432 363.005,113.432 C363.277,113.432 363.517,113.32 363.629,113.016 C363.901,112.28 364.477,111.832 365.645,111.832 C366.909,111.832 367.485,112.296 367.485,113.352 L367.485,114.04 M367.485,116.264 C367.485,116.872 367.373,117.176 367.069,117.56 C366.557,118.2 365.725,118.696 364.717,118.696 C363.757,118.696 363.117,118.136 363.117,117.304 C363.117,116.536 363.453,116.04 364.093,115.72 C364.733,115.4 365.613,115.24 367.485,115.192 L367.485,116.264 M372.657,118.872 C372.657,118.664 372.625,118.344 372.593,118.104 C373.105,119.224 374.065,119.944 375.537,119.944 C377.905,119.944 379.361,118.04 379.361,115.224 C379.361,112.376 377.985,110.616 375.585,110.616 C374.113,110.616 373.169,111.304 372.577,112.44 C372.625,112.072 372.657,111.608 372.657,111.272 L372.657,107.784 C372.657,107.352 372.369,107.144 371.953,107.144 C371.505,107.144 371.233,107.352 371.233,107.784 L371.233,119.16 C371.233,119.592 371.505,119.8 371.953,119.8 C372.417,119.8 372.657,119.56 372.657,119.208 L372.657,118.872 M375.393,111.864 C376.993,111.864 377.889,113.16 377.889,115.24 C377.889,117.304 376.961,118.68 375.345,118.68 C373.665,118.68 372.625,117.24 372.625,115.256 C372.625,113.288 373.633,111.864 375.393,111.864 M381.81,116.072 C381.81,116.44 382.114,116.616 382.45,116.616 C382.77,116.616 383.074,116.44 383.09,116.072 L383.314,107.88 C383.33,107.432 382.978,107.144 382.466,107.144 C381.938,107.144 381.586,107.432 381.586,107.88 L381.81,116.072 M382.45,117.592 C381.826,117.592 381.346,118.024 381.346,118.696 C381.346,119.368 381.826,119.8 382.45,119.8 C383.042,119.8 383.554,119.368 383.554,118.696 C383.554,118.024 383.042,117.592 382.45,117.592 Z" style="stroke:none;fill-rule:nonzero;fill:#fefff3;fill-opacity:0.623529;"/>
        </g>
    </g>
</svg>
